<?xml version="1.0" encoding="UTF-8" standalone="no"?>
<svg
   xmlns:dc="http://purl.org/dc/elements/1.1/"
   xmlns:cc="http://creativecommons.org/ns#"
   xmlns:rdf="http://www.w3.org/1999/02/22-rdf-syntax-ns#"
   xmlns:svg="http://www.w3.org/2000/svg"
   xmlns="http://www.w3.org/2000/svg"
   xmlns:xlink="http://www.w3.org/1999/xlink"
   xmlns:sodipodi="http://sodipodi.sourceforge.net/DTD/sodipodi-0.dtd"
   xmlns:inkscape="http://www.inkscape.org/namespaces/inkscape"
   width="210mm"
   height="297mm"
   viewBox="0 0 210 297"
   version="1.1"
   id="svg8"
   inkscape:export-filename="C:\Users\proma\Desktop\Visual Studio Projects\Durian\img\icons\Durian.DefaultParam.png"
   inkscape:export-xdpi="143.99405"
   inkscape:export-ydpi="143.99405"
   sodipodi:docname="Durian.Core.svg"
   inkscape:version="1.0.2-2 (e86c870879, 2021-01-15)">
  <defs
     id="defs2">
    <linearGradient
       inkscape:collect="always"
       id="linearGradient858">
      <stop
         style="stop-color:#ff0000;stop-opacity:1;"
         offset="0"
         id="stop854" />
      <stop
         style="stop-color:#ff0000;stop-opacity:0;"
         offset="1"
         id="stop856" />
    </linearGradient>
    <linearGradient
       inkscape:collect="always"
       id="linearGradient4478">
      <stop
         style="stop-color:#1a1a1a;stop-opacity:1"
         offset="0"
         id="stop4474" />
      <stop
         style="stop-color:#ffffff;stop-opacity:1"
         offset="1"
         id="stop4476" />
    </linearGradient>
    <linearGradient
       inkscape:collect="always"
       id="linearGradient4472">
      <stop
         style="stop-color:#1a1a1a;stop-opacity:1"
         offset="0"
         id="stop4468" />
      <stop
         style="stop-color:#ffffff;stop-opacity:1"
         offset="1"
         id="stop4470" />
    </linearGradient>
    <linearGradient
       inkscape:collect="always"
       xlink:href="#linearGradient4478"
       id="linearGradient940"
       x1="103.84896"
       y1="164.41965"
       x2="142.30803"
       y2="112.35342"
       gradientUnits="userSpaceOnUse" />
    <linearGradient
       inkscape:collect="always"
       xlink:href="#linearGradient4478"
       id="linearGradient942"
       x1="103.84896"
       y1="164.41965"
       x2="142.30803"
       y2="112.35342"
       gradientUnits="userSpaceOnUse" />
    <linearGradient
       inkscape:collect="always"
       xlink:href="#linearGradient4472"
       id="linearGradient944"
       x1="103.84896"
       y1="164.41965"
       x2="142.30803"
       y2="112.35342"
       gradientUnits="userSpaceOnUse" />
    <linearGradient
       inkscape:collect="always"
       xlink:href="#linearGradient4478"
       id="linearGradient946"
       x1="103.84896"
       y1="164.41965"
       x2="142.30803"
       y2="112.35342"
       gradientUnits="userSpaceOnUse" />
    <linearGradient
       inkscape:collect="always"
       xlink:href="#linearGradient858"
       id="linearGradient860"
       x1="98.873402"
       y1="161.69916"
       x2="128.0346"
       y2="161.69916"
       gradientUnits="userSpaceOnUse" />
  </defs>
  <sodipodi:namedview
     id="base"
     pagecolor="#ffffff"
     bordercolor="#666666"
     borderopacity="1.0"
     inkscape:pageopacity="0.0"
     inkscape:pageshadow="2"
     inkscape:zoom="1.979899"
     inkscape:cx="367.98129"
     inkscape:cy="588.09653"
     inkscape:document-units="mm"
     inkscape:current-layer="layer1"
     inkscape:document-rotation="0"
     showgrid="false"
     inkscape:window-width="1920"
     inkscape:window-height="1017"
     inkscape:window-x="-8"
     inkscape:window-y="-8"
     inkscape:window-maximized="1" />
  <metadata
     id="metadata5">
    <rdf:RDF>
      <cc:Work
         rdf:about="">
        <dc:format>image/svg+xml</dc:format>
        <dc:type
           rdf:resource="http://purl.org/dc/dcmitype/StillImage" />
        <dc:title></dc:title>
      </cc:Work>
    </rdf:RDF>
  </metadata>
  <g
     inkscape:label="Layer 1"
     inkscape:groupmode="layer"
     id="layer1">
    <path
       style="opacity:1;mix-blend-mode:normal;fill:url(#linearGradient942);fill-opacity:1;fill-rule:nonzero;stroke:none;stroke-width:0.05;stroke-linecap:butt;stroke-linejoin:miter;stroke-miterlimit:4;stroke-dasharray:none;stroke-opacity:1"
       d="m 109.35387,153.5137 c -0.96533,1.53522 -5.82168,2.78964 -6.98962,3.30669 -0.16318,-1.30294 0.20222,-2.60588 0.70158,-3.90882 -1.18378,0.57165 -2.36137,1.16396 -3.674955,1.30294 0.411005,-1.24524 0.660175,-2.52284 1.703845,-3.64154 -1.314077,0.23828 -2.628153,0.18596 -3.942228,0.16704 0.545182,-1.28464 1.262553,-2.47745 2.472243,-3.40769 -1.239058,-0.11637 -2.452374,-0.0912 -3.775184,-0.66817 0.839252,-1.19854 1.998635,-1.93975 3.140419,-2.7061 -1.143519,-0.28865 -2.302774,-0.50648 -3.274052,-1.57021 0.984073,-1.0074 2.326898,-1.34855 3.608139,-1.80407 -1.173043,-0.5955 -2.056392,-1.39793 -2.605878,-2.43883 1.075386,-0.94362 2.384052,-0.95412 3.674961,-1.03567 -0.9343,-1.04681 -1.30272,-2.24395 -1.570212,-3.29076 1.479392,-0.13829 2.308352,0.20155 3.040032,0.34528 1.6872,0.62209 0.6122,2.4977 2.07162,3.83823 1.33017,1.22181 8.72932,0.35982 3.25703,4.57844 -3.71022,2.22549 -5.02077,6.19172 -1.02488,7.71192 2.11232,0.8089 3.91415,1.68163 3.18714,3.22132 z"
       id="path30"
       sodipodi:nodetypes="cccccccccccccccsccc"
       inkscape:export-xdpi="177.51089"
       inkscape:export-ydpi="177.51089" />
    <path
       style="opacity:1;mix-blend-mode:normal;fill:url(#linearGradient940);fill-opacity:1;fill-rule:nonzero;stroke:none;stroke-width:0.05;stroke-linecap:butt;stroke-linejoin:miter;stroke-miterlimit:4;stroke-dasharray:none;stroke-opacity:1"
       d="m 106.08229,134.70809 c -0.75488,-1.92419 4.68598,-0.82555 7.38469,-0.71954 12.47553,1.70375 -2.18673,5.33018 4.6031,6.44533 3.82424,0.63602 -0.34086,-4.41929 5.60555,-6.21178 2.82462,-0.61143 4.76393,-0.41706 7.10413,-0.2361 -0.34566,1.433 -1.26941,2.40353 -2.50409,3.12531 1.18737,0.32051 2.4478,0.43809 3.44903,1.27567 -0.94613,1.46719 -2.49803,1.86537 -3.77976,2.74033 1.14148,0.60666 2.22326,1.27302 2.92932,2.3151 -1.30717,0.9035 -2.61434,1.30879 -3.92151,1.65365 1.13922,1.10195 1.91605,2.23684 2.36235,3.40178 -1.42441,0.19599 -2.90782,-0.08 -4.39397,-0.37797 0.89179,1.30717 1.44325,2.61433 2.03162,3.9215 -1.33478,-0.0824 -2.56991,-0.66311 -3.77976,-1.37016 0.47173,1.42125 0.59751,2.79926 0.56696,4.15773 -1.23802,-0.54798 -2.32037,-1.18491 -3.1183,-1.98437 -0.001,1.28332 -0.0509,2.5586 -0.42522,3.77976 -2.53382,-1.28521 -2.70954,-2.6652 -4.94892,-3.40109 -4.44379,-1.46489 -5.90094,-7.60517 -4.56591,-11.03719 0.80462,-2.06847 2.03344,-2.52488 1.40079,-4.15749 -0.86256,-2.22594 -4.78593,-0.79351 -6.0001,-3.32047 z"
       id="path34"
       sodipodi:nodetypes="ccccccccccccccccccssc"
       inkscape:export-xdpi="177.51089"
       inkscape:export-ydpi="177.51089" />
    <path
       style="opacity:1;mix-blend-mode:normal;fill:url(#linearGradient944);fill-opacity:1;fill-rule:nonzero;stroke:none;stroke-width:0.05;stroke-linecap:butt;stroke-linejoin:miter;stroke-miterlimit:4;stroke-dasharray:none;stroke-opacity:1"
       d="m 108.20271,130.20182 c 2.89498,-0.52463 5.46478,-0.0735 7.90143,0.58833 3.01966,0.82023 4.91351,2.90912 8.40936,1.95237 1.65731,-0.62834 2.24847,-1.81795 2.67339,-3.45089 -1.46276,-0.16389 -2.72951,0.21123 -3.94222,0.73499 0.61217,-1.11259 1.02056,-2.31097 1.03567,-3.67495 -1.41278,0.26773 -2.45852,0.94326 -3.60814,1.50339 0.23812,-1.2918 0.27158,-2.58361 0.10023,-3.87541 -1.41142,0.56987 -2.49069,1.36118 -3.24065,2.37202 -0.1776,-1.21385 -0.0685,-2.4277 -0.66817,-3.64155 -1.30701,0.74088 -1.82739,1.9035 -2.47224,3.00678 -0.49313,-1.06431 -0.94576,-2.131 -1.80407,-3.17382 -1.00749,0.97435 -1.28943,2.23374 -1.70385,3.44109 -0.68937,-0.94033 -1.52947,-1.82036 -2.77292,-2.53906 -0.58878,1.28135 -0.59288,2.67097 -0.33409,4.10927 -1.25632,-0.75959 -2.50009,-1.54679 -3.90881,-1.97111 -0.20521,1.34227 0.16177,2.66481 0.86862,3.97563 -1.23749,-0.53608 -2.51016,-0.82596 -3.842,-0.70158 0.34776,1.40857 0.44353,3.35593 1.37427,3.70532 1.59354,0.5522 4.31313,-2.06705 5.93419,-2.36082 z"
       id="path36"
       sodipodi:nodetypes="sscccccccccccccccccs"
       inkscape:export-xdpi="177.51089"
       inkscape:export-ydpi="177.51089" />
    <path
       style="opacity:1;mix-blend-mode:normal;fill:url(#linearGradient946);fill-opacity:1;fill-rule:nonzero;stroke:none;stroke-width:0.05;stroke-linecap:butt;stroke-linejoin:miter;stroke-miterlimit:4;stroke-dasharray:none;stroke-opacity:1"
       d="m 127.0325,123.67611 c -0.65263,1.10378 -1.18043,2.05345 -1.13185,3.32703 0.0334,0.48368 0.90979,0.12022 1.74501,-0.19168 0.77393,-0.35458 2.19308,-2.14066 4.43763,-2.89087 1.02808,-0.57806 -1.18667,-2.87412 -2.5912,-2.46329 -1.1261,0.27404 -1.8073,1.29866 -2.45959,2.21881 z"
       id="path38"
       sodipodi:nodetypes="cccccc"
       inkscape:export-xdpi="177.51089"
       inkscape:export-ydpi="177.51089" />
    <text
       xml:space="preserve"
       style="font-style:normal;font-variant:normal;font-weight:normal;font-stretch:normal;font-size:10.5833px;line-height:1.25;font-family:Bahnschrift;-inkscape-font-specification:Bahnschrift;text-align:center;writing-mode:lr-tb;direction:ltr;text-anchor:middle;fill:#000000;fill-opacity:1;stroke:none;stroke-width:0.1;stroke-linecap:butt;stroke-linejoin:round;stroke-miterlimit:4;stroke-dasharray:none;stroke-opacity:1;paint-order:markers stroke fill"
       id="text4493"
       x="113.6059"
       y="165.3427"
       inkscape:export-filename="C:\Users\proma\Desktop\Visual Studio Projects\Durian\img\icons\text4493.png"
       inkscape:export-xdpi="147.54666"
       inkscape:export-ydpi="147.54666"><tspan
         id="tspan4491"
         style="font-style:normal;font-variant:normal;font-weight:normal;font-stretch:normal;font-family:Bahnschrift;-inkscape-font-specification:Bahnschrift;text-align:center;writing-mode:lr-tb;direction:ltr;text-anchor:middle;fill:#000000;fill-opacity:1;stroke:none;stroke-width:0.1;stroke-linecap:butt;stroke-linejoin:round;stroke-miterlimit:4;stroke-dasharray:none;stroke-opacity:1;paint-order:markers stroke fill">durian</tspan></text>
    <text
       xml:space="preserve"
       style="font-style:normal;font-weight:normal;font-size:10.5833px;line-height:1.25;font-family:sans-serif;fill:#000000;fill-opacity:1;stroke:none;stroke-width:0.1;stroke-linecap:butt;stroke-linejoin:round;stroke-miterlimit:4;stroke-dasharray:none;stroke-opacity:1;paint-order:markers stroke fill"
       x="127.02732"
       y="157.95657"
       id="text848"><tspan
         sodipodi:role="line"
         x="127.02732"
         y="157.95657"
         style="font-style:normal;font-variant:normal;font-weight:normal;font-stretch:normal;font-size:7.05556px;font-family:Bahnschrift;-inkscape-font-specification:Bahnschrift;fill:#000000;fill-opacity:1;stroke:none;stroke-width:0.1;stroke-linecap:butt;stroke-linejoin:round;stroke-miterlimit:4;stroke-dasharray:none;stroke-opacity:1;paint-order:markers stroke fill"
         id="tspan850">cr</tspan></text>
  </g>
</svg>
